<svg xmlns="http://www.w3.org/2000/svg" viewBox="0 0 64 64" width="64" height="64">
  <defs>
    <radialGradient id="bg" cx="50%" cy="50%" r="50%">
      <stop offset="0%" stop-color="#0d1117"/>
      <stop offset="100%" stop-color="#080b0f"/>
    </radialGradient>
    <radialGradient id="glow" cx="50%" cy="50%" r="60%">
      <stop offset="0%" stop-color="#00e5ff" stop-opacity="0.18"/>
      <stop offset="100%" stop-color="#00e5ff" stop-opacity="0"/>
    </radialGradient>
    <linearGradient id="cgrad" x1="0%" y1="0%" x2="100%" y2="100%">
      <stop offset="0%" stop-color="#00e5ff"/>
      <stop offset="100%" stop-color="#7b61ff"/>
    </linearGradient>
  </defs>

  <!-- Dark background -->
  <rect width="64" height="64" rx="14" fill="url(#bg)"/>

  <!-- Subtle border -->
  <rect width="64" height="64" rx="14" fill="none" stroke="url(#cgrad)" stroke-width="1.5" opacity="0.6"/>

  <!-- Glow blob -->
  <circle cx="32" cy="32" r="28" fill="url(#glow)"/>

  <!-- Bold "C" lettermark -->
  <path
    d="M42 20.5
       C39.2 17.8 35.8 16 32 16
       C23.2 16 16 23.2 16 32
       C16 40.8 23.2 48 32 48
       C35.8 48 39.2 46.2 42 43.5
       L38.6 40.1
       C36.8 42 34.5 43 32 43
       C26 43 21 38 21 32
       C21 26 26 21 32 21
       C34.5 21 36.8 22 38.6 23.9
       Z"
    fill="url(#cgrad)"
  />

  <!-- Cyan dot accent -->
  <circle cx="43" cy="21" r="3" fill="#00e5ff"/>
</svg>
